<svg width="32" height="32" viewBox="0 0 32 32" fill="none" xmlns="http://www.w3.org/2000/svg">
<rect width="32" height="32" rx="5" fill="#FF274E"/>
<path d="M17.044 25.432C14.956 25.432 13.156 25.06 11.644 24.316C10.156 23.548 9.004 22.48 8.188 21.112C7.396 19.72 7 18.088 7 16.216C7 14.392 7.384 12.796 8.152 11.428C8.92 10.036 9.988 8.956 11.356 8.188C12.748 7.396 14.32 7 16.072 7C17.344 7 18.496 7.216 19.528 7.648C20.56 8.056 21.448 8.656 22.192 9.448C22.936 10.216 23.5 11.164 23.884 12.292C24.268 13.396 24.46 14.632 24.46 16C24.46 16.456 24.316 16.804 24.028 17.044C23.74 17.26 23.32 17.368 22.768 17.368H11.464V14.56H20.536L19.96 15.064C19.96 14.08 19.816 13.264 19.528 12.616C19.24 11.944 18.82 11.44 18.268 11.104C17.74 10.768 17.08 10.6 16.288 10.6C15.4 10.6 14.644 10.804 14.02 11.212C13.396 11.62 12.916 12.208 12.58 12.976C12.244 13.744 12.076 14.668 12.076 15.748V16.036C12.076 17.86 12.496 19.204 13.336 20.068C14.2 20.932 15.472 21.364 17.152 21.364C17.728 21.364 18.388 21.292 19.132 21.148C19.876 21.004 20.572 20.776 21.22 20.464C21.772 20.2 22.264 20.116 22.696 20.212C23.128 20.284 23.464 20.476 23.704 20.788C23.944 21.1 24.076 21.46 24.1 21.868C24.148 22.276 24.064 22.684 23.848 23.092C23.632 23.476 23.272 23.8 22.768 24.064C21.952 24.52 21.028 24.856 19.996 25.072C18.988 25.312 18.004 25.432 17.044 25.432Z" fill="white"/>
</svg>
